<svg width="24" height="27" viewBox="0 0 24 27" fill="none" xmlns="http://www.w3.org/2000/svg">
<path d="M5.708 13.1707L5.92649 12.9512L12.8089 6.03659L13.1366 5.70732C14.3383 4.5 14.3383 2.52439 13.1366 1.42683L12.6996 0.987805C12.0442 0.329268 11.2795 0 10.5147 0C9.75004 0 8.98533 0.329268 8.32986 0.878049L8.11137 1.09756L1.11975 8.12195L0.901264 8.34146C-0.300421 9.54878 -0.300421 11.5244 0.901264 12.7317L1.11975 12.9512L1.44748 13.1707C2.10295 13.7195 2.86766 14.0488 3.63237 14.0488C4.28783 14.0488 5.16178 13.7195 5.708 13.1707ZM2.75841 10.2073L10.187 2.7439C10.2963 2.63415 10.4055 2.63415 10.5147 2.63415C10.624 2.63415 10.7332 2.63415 10.8425 2.7439L11.2795 3.18293C11.3887 3.29268 11.3887 3.40244 11.3887 3.5122C11.3887 3.62195 11.3887 3.73171 11.2795 3.84146L3.85085 11.3049C3.74161 11.4146 3.63237 11.4146 3.52312 11.4146C3.41388 11.4146 3.30463 11.4146 3.19539 11.3049L2.75841 10.8659C2.64917 10.7561 2.64917 10.5366 2.64917 10.5366C2.64917 10.4268 2.64917 10.3171 2.75841 10.2073Z" fill="#060A11"/>
<path d="M22.6408 8.88993C23.8425 7.68262 23.8425 5.81676 22.6408 4.60945L22.4223 4.38993L22.313 4.28018L22.0946 4.06067C21.4391 3.51189 20.6744 3.18262 19.9097 3.18262C19.145 3.18262 18.3803 3.51189 17.7248 4.06067L17.5063 4.28018L3.30457 18.5485L3.08608 18.768C1.88439 19.9753 1.88439 21.9509 3.08608 23.1582L3.30457 23.3777L3.52305 23.5973C4.06928 24.146 4.94323 24.4753 5.70794 24.4753C6.47265 24.4753 7.23735 24.146 7.89282 23.5973L8.11131 23.3777L22.6408 8.88993ZM20.7836 7.02408L6.14491 21.7314C6.03567 21.9509 5.92642 21.9509 5.81718 21.9509C5.70794 21.9509 5.59869 21.9509 5.48945 21.7314L5.05247 21.2924C4.94323 21.1826 4.94323 21.0729 4.94323 20.9631C4.94323 20.8533 4.94323 20.7436 5.05247 20.6338L19.6912 5.92652C19.8004 5.81676 19.9097 5.81676 20.0189 5.81676C20.1282 5.81676 20.2374 5.81676 20.3466 5.92652L20.7836 6.36554C21.0021 6.58506 21.0021 6.91432 20.7836 7.02408Z" fill="#060A11"/>
<path d="M21.6577 16.6827C21.1115 16.134 20.2376 15.8047 19.4729 15.8047C18.7081 15.8047 17.9434 16.134 17.288 16.6827L17.0695 16.9022L12.9182 21.073L12.6997 21.2925C11.498 22.4998 11.498 24.4754 12.6997 25.6827L13.1367 26.1218C13.6829 26.6705 14.5569 26.9998 15.3216 26.9998C16.0863 26.9998 16.851 26.6705 17.5065 26.1218L17.725 25.9022L21.8762 21.7315L22.0947 21.512C23.2964 20.3047 23.2964 18.3291 22.0947 17.1218L21.6577 16.6827ZM20.3468 19.7559L15.7586 24.3657C15.6493 24.4754 15.5401 24.4754 15.4308 24.4754C15.3216 24.4754 15.2123 24.4754 15.1031 24.3657L14.6661 23.9266C14.4476 23.7071 14.4476 23.4876 14.6661 23.2681L19.2544 18.6583C19.3636 18.5486 19.4729 18.5486 19.5821 18.5486C19.6913 18.5486 19.8006 18.5486 19.9098 18.6583L20.3468 19.0974C20.4561 19.2071 20.4561 19.3169 20.4561 19.4266C20.4561 19.4266 20.4561 19.5364 20.3468 19.7559Z" fill="#060A11"/>
</svg>
