<svg width="24" height="24" fill="none" xmlns="http://www.w3.org/2000/svg"><path d="M10.36 4.267c-.338.058-.317.039-3.914 3.627-2.432 2.426-3.558 3.576-3.609 3.686-.101.215-.101.625 0 .84.051.11 1.177 1.26 3.609 3.686 3.837 3.827 3.615 3.63 4.074 3.624.539-.007.913-.36.951-.899.037-.519.176-.353-2.705-3.241L6.182 13h7.099c4.767 0 7.148-.014 7.248-.042.395-.11.712-.535.71-.955a1.01 1.01 0 0 0-.539-.897l-.16-.086-7.179-.01-7.178-.011L8.766 8.41c2.881-2.888 2.742-2.722 2.705-3.241-.014-.202-.046-.315-.126-.441-.123-.195-.377-.393-.547-.425-.225-.044-.338-.053-.438-.036" fill-rule="evenodd" fill="#000"/></svg>