<svg width="24" height="24" fill="none" xmlns="http://www.w3.org/2000/svg"><path d="M11.58 2.837c-.11.051-1.26 1.177-3.686 3.609-3.827 3.837-3.63 3.615-3.624 4.074.007.539.36.913.899.951.519.037.353.176 3.241-2.705l2.589-2.583.011 7.178.01 7.179.086.16c.182.336.516.538.897.539.42.002.845-.315.955-.71.028-.1.042-2.481.042-7.248V6.182l2.59 2.584c2.888 2.881 2.722 2.742 3.241 2.705.539-.038.892-.412.899-.951.006-.459.203-.237-3.624-4.074-2.426-2.432-3.576-3.558-3.686-3.609-.215-.101-.625-.101-.84 0" fill-rule="evenodd" fill="#000"/></svg>