<svg width="24" height="24" fill="none" xmlns="http://www.w3.org/2000/svg"><path d="M13.28 4.284c-.231.045-.467.212-.619.437-.097.145-.122.23-.135.451-.029.52-.166.357 2.708 3.238l2.583 2.589-7.178.011-7.179.01-.16.086a1.011 1.011 0 0 0 0 1.788l.16.086 7.179.01 7.179.011-2.567 2.569c-1.964 1.967-2.586 2.612-2.648 2.75-.113.25-.112.646.001.861.189.357.486.546.867.55.47.004.239.21 4.08-3.625 2.384-2.381 3.557-3.579 3.61-3.689A.948.948 0 0 0 21.24 12a.948.948 0 0 0-.079-.417c-.053-.11-1.226-1.308-3.61-3.689-2.752-2.748-3.562-3.534-3.671-3.566a1.2 1.2 0 0 0-.6-.044" fill-rule="evenodd" fill="#000"/></svg>