<svg width="24" height="24" fill="none" xmlns="http://www.w3.org/2000/svg"><path d="M11.6 2.843a1.013 1.013 0 0 0-.494.457l-.086.16-.01 7.179-.011 7.179-2.569-2.567c-1.967-1.964-2.612-2.586-2.75-2.648-.25-.113-.646-.112-.861.001-.357.189-.546.486-.55.867-.004.47-.21.239 3.625 4.08 2.381 2.384 3.579 3.557 3.689 3.61.11.053.245.079.417.079a.948.948 0 0 0 .417-.079c.11-.053 1.308-1.226 3.689-3.61 3.835-3.841 3.629-3.61 3.625-4.08-.004-.381-.193-.678-.55-.867-.215-.113-.611-.114-.861-.001-.138.062-.783.684-2.75 2.648l-2.569 2.567-.011-7.179-.01-7.179-.086-.16A1.007 1.007 0 0 0 12 2.762c-.136 0-.289.031-.4.081" fill-rule="evenodd" fill="#000"/></svg>