<svg width="24" height="24" fill="none" xmlns="http://www.w3.org/2000/svg"><path d="M8 5.037c-.458.14-.732.5-.732.963 0 .398.185.698.551.894l.161.086 3.799.011 3.798.011-5.223 5.229c-4.803 4.807-5.229 5.245-5.289 5.426A1.353 1.353 0 0 0 5 18c0 .405.309.826.69.939.258.077.362.077.633-.002.212-.062.335-.181 5.446-5.289l5.229-5.225.011 3.798.011 3.799.086.161c.196.366.496.551.894.551s.698-.185.894-.551l.086-.161.011-5.1c.01-4.659.005-5.115-.055-5.274a1.007 1.007 0 0 0-.516-.552l-.2-.093-5.06.003c-2.783.002-5.105.017-5.16.033" fill-rule="evenodd" fill="#000"/></svg>