<svg width="39" height="38" fill="none" xmlns="http://www.w3.org/2000/svg"><path d="M17.713.07C12.187.592 7.33 3.347 4.084 7.8c-1.759 2.413-2.888 5.216-3.377 8.385-.194 1.258-.211 3.835-.034 5.038.497 3.376 1.649 6.213 3.568 8.791 3.088 4.15 7.533 6.745 12.789 7.468 1.105.152 3.422.152 4.576 0 6.971-.918 12.791-5.466 15.254-11.921.852-2.23 1.233-4.317 1.234-6.744 0-3.005-.61-5.644-1.925-8.319a17.81 17.81 0 0 0-3.308-4.701c-1.073-1.106-1.899-1.801-3.091-2.599A18.69 18.69 0 0 0 21.742.163C20.8.036 18.608-.015 17.713.07m-.033 12.176c.503.166 1.352.824 1.649 1.28.13.199.314.58.41.845.148.411.174.591.178 1.229.006.889-.082 1.198-.542 1.903-.327.501-.716.879-1.088 1.055l-.225.107.475.227c.892.428 1.315.907 1.684 1.909.494 1.341.243 2.67-.681 3.602-.657.662-1.661 1.06-3.041 1.206-.333.035-2.032.064-3.775.065l-3.169.001V12.082l3.884.023c3.529.022 3.916.035 4.241.141m11.7 1.339v.845H22.945v-1.69H29.38v.845m-17.275 2.519.018 1.803h3.835l.352-.194c.652-.361.949-.953.902-1.803-.044-.801-.285-1.197-.897-1.475-.274-.124-.42-.132-2.26-.134l-1.967-.001.017 1.804m15.293-.277c.366.065.718.19 1.193.426.562.279.76.421 1.203.864.948.949 1.378 2.033 1.506 3.797l.044.601H23.855v.193c0 .32.191.78.524 1.265.433.631.866.903 1.567.985.798.093 1.819-.299 2.381-.914l.325-.355 1.03.302c.567.165 1.044.312 1.06.325.129.105-.789 1.191-1.36 1.61-.63.463-2.042.814-3.271.814-1.218 0-2.152-.286-3.068-.939-.735-.525-1.131-1.065-1.5-2.045-.325-.863-.443-1.54-.397-2.279.05-.803.173-1.247.573-2.075.281-.581.406-.754.89-1.241.778-.783 1.547-1.188 2.576-1.361.521-.087 1.646-.074 2.213.027m-2.164 1.774c-.19.1-.463.297-.608.438-.33.319-.701 1.045-.751 1.467l-.038.319h4.904l-.044-.276c-.057-.363-.301-.897-.584-1.283-.164-.223-.358-.379-.699-.559-.449-.238-.504-.251-1.154-.269-.641-.018-.704-.008-1.026.163M12.09 21.772v1.823h4.21l.349-.182a1.91 1.91 0 0 0 .595-.504c.404-.524.501-.758.501-1.209 0-.36-.03-.454-.27-.851-.175-.289-.374-.519-.568-.654l-.299-.207-2.259-.02-2.259-.019v1.823" fill="#404152" fill-rule="evenodd"/></svg>