<svg width="24" height="24" fill="none" xmlns="http://www.w3.org/2000/svg"><path d="M4.918 4.052a1.265 1.265 0 0 0-.812.706c-.123.272-.117.754.013 1.022.076.157.736.841 3.098 3.21L10.218 12l-3.001 3.01c-2.362 2.369-3.022 3.053-3.098 3.21-.131.269-.136.75-.012 1.025.12.264.345.495.607.624.31.152.767.157 1.066.012.157-.076.841-.736 3.21-3.098L12 13.782l3.01 3.001c2.369 2.362 3.053 3.022 3.21 3.098.299.145.756.14 1.066-.012.262-.129.487-.36.607-.624.124-.275.119-.756-.012-1.025-.076-.157-.736-.841-3.098-3.21L13.782 12l3.001-3.01c2.362-2.369 3.022-3.053 3.098-3.21.145-.299.14-.756-.012-1.066a1.326 1.326 0 0 0-.624-.607c-.275-.124-.756-.119-1.025.012-.157.076-.841.736-3.21 3.098L12 10.218 8.99 7.217C6.706 4.94 5.935 4.195 5.793 4.127a1.45 1.45 0 0 0-.875-.075" fill-rule="evenodd" fill="#000"/></svg>