<svg width="38" height="38" fill="none" xmlns="http://www.w3.org/2000/svg"><path d="M18.05.037c-.122.014-.535.056-.918.094-2.952.294-5.992 1.418-8.519 3.147-1.439.986-3.073 2.499-4.105 3.802C.546 12.081-.627 18.63 1.359 24.668c2.292 6.97 8.358 11.914 15.709 12.803.989.12 3.148.134 4.054.028 3.727-.439 6.955-1.759 9.785-4 .854-.677 2.303-2.123 2.97-2.964 2.225-2.808 3.492-5.834 4.008-9.572.126-.913.105-3.635-.035-4.591-.439-2.994-1.417-5.6-2.986-7.952-1.891-2.836-4.342-4.982-7.409-6.487C25.507.977 23.789.457 21.597.159c-.694-.094-3.078-.177-3.547-.122M20.212 8.3c1.82.186 3.597.847 5.058 1.882.772.547 2.002 1.777 2.548 2.548 1.514 2.14 2.188 4.819 1.854 7.368-.655 4.996-4.708 8.844-9.707 9.217a10.61 10.61 0 0 1-6.792-1.876c-.772-.545-2.067-1.84-2.612-2.612-1.895-2.686-2.416-6.213-1.376-9.327 1.556-4.662 6.198-7.692 11.027-7.2m-2.447 1.747a6.096 6.096 0 0 0-.589.117c-.011.01.205.328.479.706a44.062 44.062 0 0 1 2.168 3.295c.345.577.637 1.076.648 1.109.048.143 1.668-.652 2.621-1.286.696-.463 1.988-1.659 1.988-1.84 0-.049-.135-.19-.301-.314a9.861 9.861 0 0 0-3.752-1.733c-.686-.152-2.517-.182-3.262-.054M14.82 11.09a9.085 9.085 0 0 0-4.299 5.203c-.109.34-.198.637-.198.659 0 .069 2.718-.031 3.61-.134 1.44-.165 3.267-.497 4.356-.791l.27-.072-.171-.299c-.904-1.577-2.965-4.826-3.061-4.825a6.215 6.215 0 0 0-.507.259m10.734 2.786c-1.001 1.013-2.084 1.786-3.453 2.466-.434.216-.798.401-.809.411-.011.009.076.256.195.546.118.291.264.664.325.828.106.288.117.297.311.253.111-.025 1.043-.043 2.07-.041 1.778.003 2.362.045 3.626.258l.238.04v-.378c0-.913-.334-2.199-.852-3.277-.262-.547-.969-1.682-1.047-1.682-.019 0-.292.259-.604.576m-6.966 3.577c-1.798.532-4.768.966-7.371 1.078l-1.039.045.04.685c.096 1.688.629 3.242 1.617 4.72.522.78.528.784.726.447.513-.876 2-2.518 3.051-3.369 1.064-.862 2.228-1.553 3.356-1.992.726-.282.98-.406.981-.479.001-.035-.132-.341-.295-.68-.338-.707-.288-.685-1.066-.455m4.41 2.312c-.222.029-.41.061-.418.071-.009.011.139.518.329 1.127.368 1.184 1.014 3.663 1.193 4.576.06.305.131.554.159.554.112 0 1.009-.772 1.496-1.287a8.91 8.91 0 0 0 1.497-2.17c.301-.604.695-1.71.769-2.16l.044-.266-.338-.096c-1.224-.347-3.47-.512-4.731-.349m-2.826.921c-1.261.487-2.696 1.312-3.668 2.112-.559.459-1.499 1.425-1.898 1.951-.41.539-.812 1.21-.768 1.281.09.145 1.174.803 1.689 1.025 2.067.891 4.29.981 6.624.27.287-.087.522-.168.522-.18 0-.011-.071-.374-.159-.805-.331-1.627-.97-3.821-1.533-5.261l-.239-.613-.57.22" fill="#404152" fill-rule="evenodd"/></svg>