<svg width="24" height="24" fill="none" xmlns="http://www.w3.org/2000/svg"><path d="M4.24 8.035c-.301.099-.552.32-.662.583-.091.219-.085.571.014.787.06.132 1.035 1.128 3.994 4.081 4.203 4.194 3.993 4.003 4.414 4.003.421 0 .211.191 4.414-4.003 2.959-2.953 3.934-3.949 3.994-4.081.099-.216.105-.568.014-.787a1.112 1.112 0 0 0-.482-.51c-.211-.113-.656-.119-.86-.013-.077.04-1.702 1.632-3.61 3.539L12 15.1l-3.47-3.466C6.622 9.727 4.999 8.137 4.924 8.099c-.156-.077-.535-.113-.684-.064" fill-rule="evenodd" fill="#000"/></svg>