<svg width="38" height="38" fill="none" xmlns="http://www.w3.org/2000/svg"><path d="M17.607.037c-.122.014-.535.056-.919.095-4.231.421-8.393 2.461-11.41 5.59C2.392 8.715.699 12.283.117 16.593c-.108.8-.109 3.511-.003 4.37.402 3.233 1.572 6.279 3.388 8.817 2.494 3.485 6.028 6.005 10.051 7.167.787.227 1.932.483 2.161.483.116 0 .119-.171.119-6.618v-6.619h-4.75V18.81h4.624v-2.422c0-1.369.03-2.671.07-2.993.21-1.724.913-3.25 1.946-4.225.744-.702 1.524-1.154 2.534-1.47.984-.307 1.595-.37 3.208-.331 1.255.031 2.972.188 3.563.327l.142.033V12.336l-1.567.029c-1.376.026-1.619.046-1.983.164-.79.257-1.374.793-1.642 1.51-.207.554-.26 1.228-.241 3.061l.018 1.678 2.648.017c2.481.015 2.646.023 2.618.127-.017.06-.195 1.271-.395 2.69l-.364 2.58-2.19.016-2.19.017-.016 6.548-.017 6.548.36-.042c.5-.059 1.833-.382 2.554-.619 4.024-1.321 7.394-3.908 9.73-7.47 1.597-2.434 2.592-5.177 2.974-8.195.204-1.615.121-3.995-.199-5.7-1.064-5.677-4.707-10.567-9.825-13.19C25.411 1.064 23.481.463 21.185.158c-.72-.095-3.102-.176-3.578-.121" fill="#404152" fill-rule="evenodd"/></svg>