<svg width="39" height="38" fill="none" xmlns="http://www.w3.org/2000/svg"><path d="M18.395.044a18.926 18.926 0 0 0-9.103 3.109C8.176 3.897 7.58 4.381 6.574 5.36c-2.125 2.07-3.648 4.441-4.612 7.185C1.223 14.646.902 16.56.905 18.85c.005 3.744 1.048 7.234 3.081 10.302 3.062 4.624 7.849 7.598 13.408 8.33 1.154.152 3.471.152 4.576 0 5.246-.721 9.641-3.281 12.761-7.433 3.856-5.13 4.799-11.903 2.502-17.959-1.913-5.041-6.044-9.106-11.129-10.949C23.695.268 20.846-.138 18.395.044m7.07 6.848a7.144 7.144 0 0 1 4.245 2.121c.816.84 1.315 1.636 1.665 2.655.382 1.112.366.832.392 6.857.017 3.783.002 5.729-.046 6.096-.394 2.982-2.499 5.323-5.494 6.109l-.649.171-5.395.024c-3.76.016-5.59.001-6.038-.051-2.965-.341-5.419-2.433-6.182-5.271-.277-1.032-.303-1.726-.276-7.273.025-4.938.032-5.194.16-5.752.699-3.051 3.114-5.3 6.096-5.679.656-.083 10.863-.09 11.522-.007M13.869 9.131c-.952.209-1.725.638-2.465 1.367-.861.846-1.326 1.795-1.464 2.988-.044.378-.06 2.438-.046 5.787.022 5.089.025 5.21.162 5.696.533 1.892 1.996 3.271 3.884 3.661.734.152 10.852.149 11.587-.003 1.832-.378 3.244-1.659 3.863-3.504l.152-.455.019-5.558c.021-6.357.037-6.14-.505-7.247-.53-1.083-1.274-1.837-2.308-2.338-.985-.477-.605-.451-6.858-.467-4.523-.012-5.7.002-6.021.073m13.05 2.213c1.16.815.485 2.686-.92 2.551-1.17-.112-1.724-1.583-.892-2.37.363-.344.552-.414 1.068-.394.397.016.508.048.744.213m-5.67 1.723c1.909.456 3.503 1.917 4.145 3.799.337.988.418 1.943.248 2.916-.622 3.569-4.166 5.75-7.604 4.679a6.022 6.022 0 0 1-3.401-2.751c-.806-1.436-.963-3.294-.414-4.876.387-1.115 1.252-2.243 2.231-2.91 1.385-.944 3.128-1.255 4.795-.857m-2.334 1.984c-.901.195-1.81.811-2.313 1.569a4.883 4.883 0 0 0-.436.921c-.375 1.088-.213 2.419.411 3.371.747 1.138 2.139 1.846 3.443 1.75a3.897 3.897 0 0 0 3.273-2.239c.568-1.19.457-2.632-.291-3.749-.888-1.328-2.494-1.966-4.087-1.623" fill="#404152" fill-rule="evenodd"/></svg>