<svg width="47" height="46" fill="none" xmlns="http://www.w3.org/2000/svg"><path d="M21.724.086c-2.308.205-4.415.806-6.566 1.871-3.806 1.883-6.691 4.755-8.539 8.501-.889 1.801-1.394 3.343-1.718 5.248-.86 5.044.444 10.3 3.584 14.452.739.976 2.169 2.447 3.148 3.236 2.614 2.108 5.628 3.432 9.07 3.985 1.244.2 3.8.238 4.99.074 2.196-.301 4.1-.875 5.993-1.805 2.004-.985 3.521-2.068 5.053-3.606 3.552-3.565 5.483-8.236 5.483-13.264 0-2.079-.294-3.903-.949-5.892-1.777-5.402-5.946-9.71-11.358-11.737C27.48.237 24.443-.157 21.724.086m-3.511 9.617c1.017.464 1.458 1.536 1.084 2.636-.431 1.263-2.182 1.704-3.256.819-.849-.7-.925-2.18-.154-3.004.522-.558 1.623-.771 2.326-.451m12.057 5.485c1.26.451 1.917 1.214 2.331 2.711.167.604.175.78.202 4.798l.029 4.171h-3.605l-.026-3.623c-.023-3.236-.041-3.66-.164-3.974-.289-.736-.853-1.093-1.729-1.096-1.206-.004-1.833.488-2.075 1.628-.057.27-.088 1.599-.088 3.818v3.404h-3.682V15.353h3.525l.001.725.001.725.212-.275a4.185 4.185 0 0 1 2.145-1.447c.628-.177 2.301-.115 2.923.107m-11.078 6.001v5.836h-3.604V15.353h3.604v5.836" fill="#404152" fill-rule="evenodd"/></svg>