<svg width="24" height="24" fill="none" xmlns="http://www.w3.org/2000/svg"><path d="M3.291 4.844c-.262.101-.545.373-.673.647a1.312 1.312 0 0 0 0 1.018c.131.282.41.546.685.649.22.082.234.082 8.697.082s8.477 0 8.697-.082c.275-.103.554-.367.685-.649a1.312 1.312 0 0 0 0-1.018 1.339 1.339 0 0 0-.685-.649c-.22-.082-.232-.082-8.709-.08-8.398.002-8.49.003-8.697.082m0 6c-.262.101-.545.373-.673.647a1.312 1.312 0 0 0 0 1.018c.131.282.41.546.685.649.22.082.234.082 8.697.082s8.477 0 8.697-.082c.275-.103.554-.367.685-.649.076-.163.097-.275.097-.509 0-.234-.021-.346-.097-.509a1.339 1.339 0 0 0-.685-.649c-.22-.082-.232-.082-8.709-.08-8.398.002-8.49.003-8.697.082m0 6c-.262.101-.545.373-.673.647a1.312 1.312 0 0 0 0 1.018c.131.282.41.546.685.649.22.082.234.082 8.697.082s8.477 0 8.697-.082c.275-.103.554-.367.685-.649.076-.163.097-.275.097-.509 0-.234-.021-.346-.097-.509a1.339 1.339 0 0 0-.685-.649c-.22-.082-.232-.082-8.709-.08-8.398.002-8.49.003-8.697.082" fill-rule="evenodd" fill="#000"/></svg>