<svg width="24" height="24" fill="none" xmlns="http://www.w3.org/2000/svg"><path d="M4.04 2.817a1.793 1.793 0 0 0-1.221 1.211c-.049.161-.058.709-.058 3.452 0 3.2.016 3.748.139 4.571.303 2.035 1.167 4.026 2.428 5.593 1.323 1.644 3.27 3.084 5.312 3.927 1.046.431 1.393.477 2.015.264 1.265-.432 2.665-1.187 3.797-2.045 2.434-1.846 4.017-4.366 4.567-7.27.194-1.027.193-.989.21-4.72.012-2.7.004-3.583-.033-3.72a1.794 1.794 0 0 0-1.25-1.264c-.291-.078-15.628-.076-15.906.001M19.23 7.97c-.015 3.082-.019 3.232-.105 3.765-.222 1.39-.625 2.52-1.292 3.625-1.14 1.892-3.183 3.561-5.426 4.435l-.407.159-.39-.153a12.083 12.083 0 0 1-3.09-1.789c-.838-.671-1.757-1.685-2.259-2.493-.719-1.154-1.157-2.352-1.386-3.784-.086-.533-.09-.683-.105-3.765l-.015-3.21h14.49l-.015 3.21m-3.463.095c-.184.068-.15.037-3.425 3.163l-1.719 1.64-1.071-1.024c-.745-.712-1.129-1.051-1.261-1.113a.994.994 0 0 0-1.411.899c0 .201.091.464.21.605.201.239 2.962 2.849 3.076 2.908.148.076.493.117.685.081a.967.967 0 0 0 .3-.135c.088-.06 1.429-1.321 2.981-2.803 2.41-2.3 2.833-2.721 2.905-2.887a1.005 1.005 0 0 0-.414-1.259 1.14 1.14 0 0 0-.856-.075" fill-rule="evenodd" fill="#000"/></svg>