<svg width="39" height="38" fill="none" xmlns="http://www.w3.org/2000/svg"><path d="M18.395.037c-.125.015-.549.059-.942.098-3.272.327-6.479 1.618-9.325 3.752-.926.695-2.719 2.471-3.393 3.361-1.714 2.264-2.784 4.476-3.427 7.085-.376 1.527-.525 2.792-.527 4.461-.003 3.04.629 5.72 1.99 8.441.944 1.887 2.029 3.382 3.564 4.907 3.055 3.038 6.83 4.851 11.183 5.371.896.107 3.234.107 4.095 0 5.586-.694 10.306-3.53 13.447-8.081 3.283-4.756 4.169-10.892 2.371-16.421C35.172 6.068 29.216 1.127 21.938.159c-.695-.093-3.085-.174-3.543-.122M24.93 10.37c.262.068.614.25 1.085.561.384.253.731.5.772.55.168.203.906.032 2.025-.471.845-.38.86-.378.689.089-.169.458-.595 1.114-.992 1.527-.163.17-.261.308-.217.307.044-.001.45-.128.901-.281.776-.265.824-.273.894-.161.063.101.023.174-.27.493-.425.461-.989.988-1.255 1.171l-.2.138-.075 1.129c-.175 2.633-.74 4.598-1.842 6.404-1.646 2.698-4.719 4.59-8.277 5.096-.843.12-2.7.101-3.598-.036-1.126-.172-2.316-.476-2.996-.766-.785-.334-1.737-.812-1.79-.898-.028-.045.27-.067.896-.067.551 0 1.176-.041 1.515-.1 1.314-.228 2.884-.808 3.405-1.258l.228-.197-.24-.002c-.497-.006-1.785-.569-2.383-1.041-.431-.341-.938-1.027-1.122-1.515-.077-.207-.127-.389-.111-.406.016-.016.276.001.577.038.351.042.642.044.808.005.167-.039.206-.063.108-.067-.083-.004-.417-.144-.74-.311-1.33-.686-2.202-1.98-2.307-3.417-.043-.589-.047-.586.557-.34.487.197 1.18.366 1.18.287 0-.031-.23-.285-.511-.563-.819-.809-1.241-1.831-1.243-3.009-.001-.34.045-.72.118-.983.116-.42.424-1.031.519-1.031.027 0 .238.193.469.43 1.626 1.662 3.572 2.786 5.954 3.439.809.221 2.289.518 2.339.468.015-.015-.005-.25-.043-.523-.118-.855.097-1.896.555-2.684.102-.175.392-.525.645-.779.381-.381.59-.526 1.208-.832.553-.273.858-.384 1.17-.424.68-.086 1.181-.077 1.595.03" fill="#404152" fill-rule="evenodd"/></svg>