<svg width="16" height="32" fill="none" xmlns="http://www.w3.org/2000/svg"><path d="M7.65 4.408a1.426 1.426 0 0 0-.226.119c-.043.031-1.17 1.152-2.507 2.491C2.163 9.779 2.36 9.55 2.36 10.001c0 .232.007.268.087.429.102.209.27.373.482.472.13.062.186.071.404.071.447 0 .266.152 2.607-2.183L8 6.734l2.06 2.056c2.341 2.335 2.159 2.183 2.607 2.183.233 0 .269-.007.43-.086.209-.103.373-.27.472-.482.061-.131.071-.186.071-.406 0-.458.183-.246-2.632-3.055-2.764-2.757-2.553-2.574-2.981-2.59-.191-.007-.251.001-.377.054m-4.674 16.67a1.005 1.005 0 0 0-.576.594.764.764 0 0 0-.048.368c.02.415-.154.216 2.592 2.968C7.753 27.823 7.541 27.64 8 27.64c.459 0 .247.183 3.056-2.632 2.784-2.79 2.584-2.557 2.584-3.009 0-.232-.007-.268-.087-.429a1.004 1.004 0 0 0-.482-.472c-.13-.062-.186-.071-.404-.071-.447 0-.266-.152-2.607 2.183L8 25.266 5.94 23.21c-2.316-2.311-2.155-2.174-2.58-2.19-.193-.007-.25.002-.384.058" fill-rule="evenodd" fill="#000"/></svg>