<svg width="0" height="0" class="hidden">
  <symbol fill="none" xmlns="http://www.w3.org/2000/svg" viewBox="0 0 38 38" id="dribbble">
    <path
      d="M18.05.037c-.122.014-.535.056-.918.094-2.952.294-5.992 1.418-8.519 3.147-1.439.986-3.073 2.499-4.105 3.802C.546 12.081-.627 18.63 1.359 24.668c2.292 6.97 8.358 11.914 15.709 12.803.989.12 3.148.134 4.054.028 3.727-.439 6.955-1.759 9.785-4 .854-.677 2.303-2.123 2.97-2.964 2.225-2.808 3.492-5.834 4.008-9.572.126-.913.105-3.635-.035-4.591-.439-2.994-1.417-5.6-2.986-7.952-1.891-2.836-4.342-4.982-7.409-6.487C25.507.977 23.789.457 21.597.159c-.694-.094-3.078-.177-3.547-.122M20.212 8.3c1.82.186 3.597.847 5.058 1.882.772.547 2.002 1.777 2.548 2.548 1.514 2.14 2.188 4.819 1.854 7.368-.655 4.996-4.708 8.844-9.707 9.217a10.61 10.61 0 0 1-6.792-1.876c-.772-.545-2.067-1.84-2.612-2.612-1.895-2.686-2.416-6.213-1.376-9.327 1.556-4.662 6.198-7.692 11.027-7.2m-2.447 1.747a6.096 6.096 0 0 0-.589.117c-.011.01.205.328.479.706a44.062 44.062 0 0 1 2.168 3.295c.345.577.637 1.076.648 1.109.048.143 1.668-.652 2.621-1.286.696-.463 1.988-1.659 1.988-1.84 0-.049-.135-.19-.301-.314a9.861 9.861 0 0 0-3.752-1.733c-.686-.152-2.517-.182-3.262-.054M14.82 11.09a9.085 9.085 0 0 0-4.299 5.203c-.109.34-.198.637-.198.659 0 .069 2.718-.031 3.61-.134 1.44-.165 3.267-.497 4.356-.791l.27-.072-.171-.299c-.904-1.577-2.965-4.826-3.061-4.825a6.215 6.215 0 0 0-.507.259m10.734 2.786c-1.001 1.013-2.084 1.786-3.453 2.466-.434.216-.798.401-.809.411-.011.009.076.256.195.546.118.291.264.664.325.828.106.288.117.297.311.253.111-.025 1.043-.043 2.07-.041 1.778.003 2.362.045 3.626.258l.238.04v-.378c0-.913-.334-2.199-.852-3.277-.262-.547-.969-1.682-1.047-1.682-.019 0-.292.259-.604.576m-6.966 3.577c-1.798.532-4.768.966-7.371 1.078l-1.039.045.04.685c.096 1.688.629 3.242 1.617 4.72.522.78.528.784.726.447.513-.876 2-2.518 3.051-3.369 1.064-.862 2.228-1.553 3.356-1.992.726-.282.98-.406.981-.479.001-.035-.132-.341-.295-.68-.338-.707-.288-.685-1.066-.455m4.41 2.312c-.222.029-.41.061-.418.071-.009.011.139.518.329 1.127.368 1.184 1.014 3.663 1.193 4.576.06.305.131.554.159.554.112 0 1.009-.772 1.496-1.287a8.91 8.91 0 0 0 1.497-2.17c.301-.604.695-1.71.769-2.16l.044-.266-.338-.096c-1.224-.347-3.47-.512-4.731-.349m-2.826.921c-1.261.487-2.696 1.312-3.668 2.112-.559.459-1.499 1.425-1.898 1.951-.41.539-.812 1.21-.768 1.281.09.145 1.174.803 1.689 1.025 2.067.891 4.29.981 6.624.27.287-.087.522-.168.522-.18 0-.011-.071-.374-.159-.805-.331-1.627-.97-3.821-1.533-5.261l-.239-.613-.57.22"
      fill="#404152" fill-rule="evenodd"></path>
  </symbol>
  <symbol fill="none" xmlns="http://www.w3.org/2000/svg" viewBox="0 0 24 24" id="drop-down">
    <path
      d="M4.24 8.035c-.301.099-.552.32-.662.583-.091.219-.085.571.014.787.06.132 1.035 1.128 3.994 4.081 4.203 4.194 3.993 4.003 4.414 4.003.421 0 .211.191 4.414-4.003 2.959-2.953 3.934-3.949 3.994-4.081.099-.216.105-.568.014-.787a1.112 1.112 0 0 0-.482-.51c-.211-.113-.656-.119-.86-.013-.077.04-1.702 1.632-3.61 3.539L12 15.1l-3.47-3.466C6.622 9.727 4.999 8.137 4.924 8.099c-.156-.077-.535-.113-.684-.064"
      fill-rule="evenodd" fill="#000"></path>
  </symbol>
  <symbol fill="none" xmlns="http://www.w3.org/2000/svg" viewBox="0 0 38 38" id="facbook">
    <path
      d="M17.607.037c-.122.014-.535.056-.919.095-4.231.421-8.393 2.461-11.41 5.59C2.392 8.715.699 12.283.117 16.593c-.108.8-.109 3.511-.003 4.37.402 3.233 1.572 6.279 3.388 8.817 2.494 3.485 6.028 6.005 10.051 7.167.787.227 1.932.483 2.161.483.116 0 .119-.171.119-6.618v-6.619h-4.75V18.81h4.624v-2.422c0-1.369.03-2.671.07-2.993.21-1.724.913-3.25 1.946-4.225.744-.702 1.524-1.154 2.534-1.47.984-.307 1.595-.37 3.208-.331 1.255.031 2.972.188 3.563.327l.142.033V12.336l-1.567.029c-1.376.026-1.619.046-1.983.164-.79.257-1.374.793-1.642 1.51-.207.554-.26 1.228-.241 3.061l.018 1.678 2.648.017c2.481.015 2.646.023 2.618.127-.017.06-.195 1.271-.395 2.69l-.364 2.58-2.19.016-2.19.017-.016 6.548-.017 6.548.36-.042c.5-.059 1.833-.382 2.554-.619 4.024-1.321 7.394-3.908 9.73-7.47 1.597-2.434 2.592-5.177 2.974-8.195.204-1.615.121-3.995-.199-5.7-1.064-5.677-4.707-10.567-9.825-13.19C25.411 1.064 23.481.463 21.185.158c-.72-.095-3.102-.176-3.578-.121"
      fill="#404152" fill-rule="evenodd"></path>
  </symbol>
  <symbol fill="none" xmlns="http://www.w3.org/2000/svg" viewBox="0 0 39 38" id="instagarm">
    <path
      d="M18.395.044a18.926 18.926 0 0 0-9.103 3.109C8.176 3.897 7.58 4.381 6.574 5.36c-2.125 2.07-3.648 4.441-4.612 7.185C1.223 14.646.902 16.56.905 18.85c.005 3.744 1.048 7.234 3.081 10.302 3.062 4.624 7.849 7.598 13.408 8.33 1.154.152 3.471.152 4.576 0 5.246-.721 9.641-3.281 12.761-7.433 3.856-5.13 4.799-11.903 2.502-17.959-1.913-5.041-6.044-9.106-11.129-10.949C23.695.268 20.846-.138 18.395.044m7.07 6.848a7.144 7.144 0 0 1 4.245 2.121c.816.84 1.315 1.636 1.665 2.655.382 1.112.366.832.392 6.857.017 3.783.002 5.729-.046 6.096-.394 2.982-2.499 5.323-5.494 6.109l-.649.171-5.395.024c-3.76.016-5.59.001-6.038-.051-2.965-.341-5.419-2.433-6.182-5.271-.277-1.032-.303-1.726-.276-7.273.025-4.938.032-5.194.16-5.752.699-3.051 3.114-5.3 6.096-5.679.656-.083 10.863-.09 11.522-.007M13.869 9.131c-.952.209-1.725.638-2.465 1.367-.861.846-1.326 1.795-1.464 2.988-.044.378-.06 2.438-.046 5.787.022 5.089.025 5.21.162 5.696.533 1.892 1.996 3.271 3.884 3.661.734.152 10.852.149 11.587-.003 1.832-.378 3.244-1.659 3.863-3.504l.152-.455.019-5.558c.021-6.357.037-6.14-.505-7.247-.53-1.083-1.274-1.837-2.308-2.338-.985-.477-.605-.451-6.858-.467-4.523-.012-5.7.002-6.021.073m13.05 2.213c1.16.815.485 2.686-.92 2.551-1.17-.112-1.724-1.583-.892-2.37.363-.344.552-.414 1.068-.394.397.016.508.048.744.213m-5.67 1.723c1.909.456 3.503 1.917 4.145 3.799.337.988.418 1.943.248 2.916-.622 3.569-4.166 5.75-7.604 4.679a6.022 6.022 0 0 1-3.401-2.751c-.806-1.436-.963-3.294-.414-4.876.387-1.115 1.252-2.243 2.231-2.91 1.385-.944 3.128-1.255 4.795-.857m-2.334 1.984c-.901.195-1.81.811-2.313 1.569a4.883 4.883 0 0 0-.436.921c-.375 1.088-.213 2.419.411 3.371.747 1.138 2.139 1.846 3.443 1.75a3.897 3.897 0 0 0 3.273-2.239c.568-1.19.457-2.632-.291-3.749-.888-1.328-2.494-1.966-4.087-1.623"
      fill="#404152" fill-rule="evenodd"></path>
  </symbol>
  <symbol fill="none" xmlns="http://www.w3.org/2000/svg" viewBox="0 0 47 46" id="linkedin">
    <path
      d="M21.724.086c-2.308.205-4.415.806-6.566 1.871-3.806 1.883-6.691 4.755-8.539 8.501-.889 1.801-1.394 3.343-1.718 5.248-.86 5.044.444 10.3 3.584 14.452.739.976 2.169 2.447 3.148 3.236 2.614 2.108 5.628 3.432 9.07 3.985 1.244.2 3.8.238 4.99.074 2.196-.301 4.1-.875 5.993-1.805 2.004-.985 3.521-2.068 5.053-3.606 3.552-3.565 5.483-8.236 5.483-13.264 0-2.079-.294-3.903-.949-5.892-1.777-5.402-5.946-9.71-11.358-11.737C27.48.237 24.443-.157 21.724.086m-3.511 9.617c1.017.464 1.458 1.536 1.084 2.636-.431 1.263-2.182 1.704-3.256.819-.849-.7-.925-2.18-.154-3.004.522-.558 1.623-.771 2.326-.451m12.057 5.485c1.26.451 1.917 1.214 2.331 2.711.167.604.175.78.202 4.798l.029 4.171h-3.605l-.026-3.623c-.023-3.236-.041-3.66-.164-3.974-.289-.736-.853-1.093-1.729-1.096-1.206-.004-1.833.488-2.075 1.628-.057.27-.088 1.599-.088 3.818v3.404h-3.682V15.353h3.525l.001.725.001.725.212-.275a4.185 4.185 0 0 1 2.145-1.447c.628-.177 2.301-.115 2.923.107m-11.078 6.001v5.836h-3.604V15.353h3.604v5.836"
      fill="#404152" fill-rule="evenodd"></path>
  </symbol>
  <symbol fill="none" xmlns="http://www.w3.org/2000/svg" viewBox="0 0 24 24" id="list-menu">
    <path
      d="M3.291 4.844c-.262.101-.545.373-.673.647a1.312 1.312 0 0 0 0 1.018c.131.282.41.546.685.649.22.082.234.082 8.697.082s8.477 0 8.697-.082c.275-.103.554-.367.685-.649a1.312 1.312 0 0 0 0-1.018 1.339 1.339 0 0 0-.685-.649c-.22-.082-.232-.082-8.709-.08-8.398.002-8.49.003-8.697.082m0 6c-.262.101-.545.373-.673.647a1.312 1.312 0 0 0 0 1.018c.131.282.41.546.685.649.22.082.234.082 8.697.082s8.477 0 8.697-.082c.275-.103.554-.367.685-.649.076-.163.097-.275.097-.509 0-.234-.021-.346-.097-.509a1.339 1.339 0 0 0-.685-.649c-.22-.082-.232-.082-8.709-.08-8.398.002-8.49.003-8.697.082m0 6c-.262.101-.545.373-.673.647a1.312 1.312 0 0 0 0 1.018c.131.282.41.546.685.649.22.082.234.082 8.697.082s8.477 0 8.697-.082c.275-.103.554-.367.685-.649.076-.163.097-.275.097-.509 0-.234-.021-.346-.097-.509a1.339 1.339 0 0 0-.685-.649c-.22-.082-.232-.082-8.709-.08-8.398.002-8.49.003-8.697.082"
      fill-rule="evenodd" fill="#000"></path>
  </symbol>
  <symbol fill="none" xmlns="http://www.w3.org/2000/svg" viewBox="0 0 24 24" id="secure">
    <path
      d="M4.04 2.817a1.793 1.793 0 0 0-1.221 1.211c-.049.161-.058.709-.058 3.452 0 3.2.016 3.748.139 4.571.303 2.035 1.167 4.026 2.428 5.593 1.323 1.644 3.27 3.084 5.312 3.927 1.046.431 1.393.477 2.015.264 1.265-.432 2.665-1.187 3.797-2.045 2.434-1.846 4.017-4.366 4.567-7.27.194-1.027.193-.989.21-4.72.012-2.7.004-3.583-.033-3.72a1.794 1.794 0 0 0-1.25-1.264c-.291-.078-15.628-.076-15.906.001M19.23 7.97c-.015 3.082-.019 3.232-.105 3.765-.222 1.39-.625 2.52-1.292 3.625-1.14 1.892-3.183 3.561-5.426 4.435l-.407.159-.39-.153a12.083 12.083 0 0 1-3.09-1.789c-.838-.671-1.757-1.685-2.259-2.493-.719-1.154-1.157-2.352-1.386-3.784-.086-.533-.09-.683-.105-3.765l-.015-3.21h14.49l-.015 3.21m-3.463.095c-.184.068-.15.037-3.425 3.163l-1.719 1.64-1.071-1.024c-.745-.712-1.129-1.051-1.261-1.113a.994.994 0 0 0-1.411.899c0 .201.091.464.21.605.201.239 2.962 2.849 3.076 2.908.148.076.493.117.685.081a.967.967 0 0 0 .3-.135c.088-.06 1.429-1.321 2.981-2.803 2.41-2.3 2.833-2.721 2.905-2.887a1.005 1.005 0 0 0-.414-1.259 1.14 1.14 0 0 0-.856-.075"
      fill-rule="evenodd" fill="#000"></path>
  </symbol>
  <symbol fill="none" xmlns="http://www.w3.org/2000/svg" viewBox="0 0 39 38" id="twitter">
    <path
      d="M18.395.037c-.125.015-.549.059-.942.098-3.272.327-6.479 1.618-9.325 3.752-.926.695-2.719 2.471-3.393 3.361-1.714 2.264-2.784 4.476-3.427 7.085-.376 1.527-.525 2.792-.527 4.461-.003 3.04.629 5.72 1.99 8.441.944 1.887 2.029 3.382 3.564 4.907 3.055 3.038 6.83 4.851 11.183 5.371.896.107 3.234.107 4.095 0 5.586-.694 10.306-3.53 13.447-8.081 3.283-4.756 4.169-10.892 2.371-16.421C35.172 6.068 29.216 1.127 21.938.159c-.695-.093-3.085-.174-3.543-.122M24.93 10.37c.262.068.614.25 1.085.561.384.253.731.5.772.55.168.203.906.032 2.025-.471.845-.38.86-.378.689.089-.169.458-.595 1.114-.992 1.527-.163.17-.261.308-.217.307.044-.001.45-.128.901-.281.776-.265.824-.273.894-.161.063.101.023.174-.27.493-.425.461-.989.988-1.255 1.171l-.2.138-.075 1.129c-.175 2.633-.74 4.598-1.842 6.404-1.646 2.698-4.719 4.59-8.277 5.096-.843.12-2.7.101-3.598-.036-1.126-.172-2.316-.476-2.996-.766-.785-.334-1.737-.812-1.79-.898-.028-.045.27-.067.896-.067.551 0 1.176-.041 1.515-.1 1.314-.228 2.884-.808 3.405-1.258l.228-.197-.24-.002c-.497-.006-1.785-.569-2.383-1.041-.431-.341-.938-1.027-1.122-1.515-.077-.207-.127-.389-.111-.406.016-.016.276.001.577.038.351.042.642.044.808.005.167-.039.206-.063.108-.067-.083-.004-.417-.144-.74-.311-1.33-.686-2.202-1.98-2.307-3.417-.043-.589-.047-.586.557-.34.487.197 1.18.366 1.18.287 0-.031-.23-.285-.511-.563-.819-.809-1.241-1.831-1.243-3.009-.001-.34.045-.72.118-.983.116-.42.424-1.031.519-1.031.027 0 .238.193.469.43 1.626 1.662 3.572 2.786 5.954 3.439.809.221 2.289.518 2.339.468.015-.015-.005-.25-.043-.523-.118-.855.097-1.896.555-2.684.102-.175.392-.525.645-.779.381-.381.59-.526 1.208-.832.553-.273.858-.384 1.17-.424.68-.086 1.181-.077 1.595.03"
      fill="#404152" fill-rule="evenodd"></path>
  </symbol>
  <symbol fill="none" xmlns="http://www.w3.org/2000/svg" viewBox="0 0 16 32" id="up-down">
    <path
      d="M7.65 4.408a1.426 1.426 0 0 0-.226.119c-.043.031-1.17 1.152-2.507 2.491C2.163 9.779 2.36 9.55 2.36 10.001c0 .232.007.268.087.429.102.209.27.373.482.472.13.062.186.071.404.071.447 0 .266.152 2.607-2.183L8 6.734l2.06 2.056c2.341 2.335 2.159 2.183 2.607 2.183.233 0 .269-.007.43-.086.209-.103.373-.27.472-.482.061-.131.071-.186.071-.406 0-.458.183-.246-2.632-3.055-2.764-2.757-2.553-2.574-2.981-2.59-.191-.007-.251.001-.377.054m-4.674 16.67a1.005 1.005 0 0 0-.576.594.764.764 0 0 0-.048.368c.02.415-.154.216 2.592 2.968C7.753 27.823 7.541 27.64 8 27.64c.459 0 .247.183 3.056-2.632 2.784-2.79 2.584-2.557 2.584-3.009 0-.232-.007-.268-.087-.429a1.004 1.004 0 0 0-.482-.472c-.13-.062-.186-.071-.404-.071-.447 0-.266-.152-2.607 2.183L8 25.266 5.94 23.21c-2.316-2.311-2.155-2.174-2.58-2.19-.193-.007-.25.002-.384.058"
      fill-rule="evenodd" fill="#000"></path>
  </symbol>
  <symbol fill="none" xmlns="http://www.w3.org/2000/svg" viewBox="0 0 24 24" id="arrowa">
    <path
      d="M8 5.037c-.458.14-.732.5-.732.963 0 .398.185.698.551.894l.161.086 3.799.011 3.798.011-5.223 5.229c-4.803 4.807-5.229 5.245-5.289 5.426A1.353 1.353 0 0 0 5 18c0 .405.309.826.69.939.258.077.362.077.633-.002.212-.062.335-.181 5.446-5.289l5.229-5.225.011 3.798.011 3.799.086.161c.196.366.496.551.894.551s.698-.185.894-.551l.086-.161.011-5.1c.01-4.659.005-5.115-.055-5.274a1.007 1.007 0 0 0-.516-.552l-.2-.093-5.06.003c-2.783.002-5.105.017-5.16.033"
      fill-rule="evenodd"></path>
  </symbol>

  <symbol xmlns="http://www.w3.org/2000/svg" viewBox="0 0 24 24" id="arrow">
    <path
      d="M19.642 6.269c-.194.069-.063-.057-6.58 6.342l-3.239 3.18-.747-.726a808.896 808.896 0 0 1-2.603-2.55c-1.206-1.185-1.919-1.857-2.035-1.917-.241-.125-.629-.128-.863-.007-.381.197-.556.487-.553.912.002.233.022.317.109.466.059.1.465.53.903.956.437.426 1.65 1.614 2.694 2.639 1.771 1.74 1.918 1.874 2.201 2.014a1.946 1.946 0 0 0 1.788-.002c.274-.135.405-.25 1.363-1.195.583-.575 2.617-2.572 4.52-4.437 4.456-4.368 4.26-4.168 4.338-4.429.12-.405.042-.728-.244-1.015a.988.988 0 0 0-1.052-.231"
      fill-rule="evenodd" />
  </symbol>

  <symbol fill="none" xmlns="http://www.w3.org/2000/svg" viewBox="0 0 24 24" id="arrow-down">
    <path
      d="M11.6 2.843a1.013 1.013 0 0 0-.494.457l-.086.16-.01 7.179-.011 7.179-2.569-2.567c-1.967-1.964-2.612-2.586-2.75-2.648-.25-.113-.646-.112-.861.001-.357.189-.546.486-.55.867-.004.47-.21.239 3.625 4.08 2.381 2.384 3.579 3.557 3.689 3.61.11.053.245.079.417.079a.948.948 0 0 0 .417-.079c.11-.053 1.308-1.226 3.689-3.61 3.835-3.841 3.629-3.61 3.625-4.08-.004-.381-.193-.678-.55-.867-.215-.113-.611-.114-.861-.001-.138.062-.783.684-2.75 2.648l-2.569 2.567-.011-7.179-.01-7.179-.086-.16A1.007 1.007 0 0 0 12 2.762c-.136 0-.289.031-.4.081"
      fill-rule="evenodd" fill="#000"></path>
  </symbol>
  <symbol fill="none" xmlns="http://www.w3.org/2000/svg" viewBox="0 0 24 24" id="arrow-left">
    <path
      d="M10.36 4.267c-.338.058-.317.039-3.914 3.627-2.432 2.426-3.558 3.576-3.609 3.686-.101.215-.101.625 0 .84.051.11 1.177 1.26 3.609 3.686 3.837 3.827 3.615 3.63 4.074 3.624.539-.007.913-.36.951-.899.037-.519.176-.353-2.705-3.241L6.182 13h7.099c4.767 0 7.148-.014 7.248-.042.395-.11.712-.535.71-.955a1.01 1.01 0 0 0-.539-.897l-.16-.086-7.179-.01-7.178-.011L8.766 8.41c2.881-2.888 2.742-2.722 2.705-3.241-.014-.202-.046-.315-.126-.441-.123-.195-.377-.393-.547-.425-.225-.044-.338-.053-.438-.036"
      fill-rule="evenodd" fill="#000"></path>
  </symbol>
  <symbol fill="none" xmlns="http://www.w3.org/2000/svg" viewBox="0 0 24 24" id="arrow-right">
    <path
      d="M13.28 4.284c-.231.045-.467.212-.619.437-.097.145-.122.23-.135.451-.029.52-.166.357 2.708 3.238l2.583 2.589-7.178.011-7.179.01-.16.086a1.011 1.011 0 0 0 0 1.788l.16.086 7.179.01 7.179.011-2.567 2.569c-1.964 1.967-2.586 2.612-2.648 2.75-.113.25-.112.646.001.861.189.357.486.546.867.55.47.004.239.21 4.08-3.625 2.384-2.381 3.557-3.579 3.61-3.689A.948.948 0 0 0 21.24 12a.948.948 0 0 0-.079-.417c-.053-.11-1.226-1.308-3.61-3.689-2.752-2.748-3.562-3.534-3.671-3.566a1.2 1.2 0 0 0-.6-.044"
      fill-rule="evenodd" fill="#000"></path>
  </symbol>
  <symbol fill="none" xmlns="http://www.w3.org/2000/svg" viewBox="0 0 24 24" id="arrow-up">
    <path
      d="M11.58 2.837c-.11.051-1.26 1.177-3.686 3.609-3.827 3.837-3.63 3.615-3.624 4.074.007.539.36.913.899.951.519.037.353.176 3.241-2.705l2.589-2.583.011 7.178.01 7.179.086.16c.182.336.516.538.897.539.42.002.845-.315.955-.71.028-.1.042-2.481.042-7.248V6.182l2.59 2.584c2.888 2.881 2.722 2.742 3.241 2.705.539-.038.892-.412.899-.951.006-.459.203-.237-3.624-4.074-2.426-2.432-3.576-3.558-3.686-3.609-.215-.101-.625-.101-.84 0"
      fill-rule="evenodd" fill="#000"></path>
  </symbol>
  <symbol fill="none" xmlns="http://www.w3.org/2000/svg" viewBox="0 0 24 24" id="close">
    <path
      d="M4.918 4.052a1.265 1.265 0 0 0-.812.706c-.123.272-.117.754.013 1.022.076.157.736.841 3.098 3.21L10.218 12l-3.001 3.01c-2.362 2.369-3.022 3.053-3.098 3.21-.131.269-.136.75-.012 1.025.12.264.345.495.607.624.31.152.767.157 1.066.012.157-.076.841-.736 3.21-3.098L12 13.782l3.01 3.001c2.369 2.362 3.053 3.022 3.21 3.098.299.145.756.14 1.066-.012.262-.129.487-.36.607-.624.124-.275.119-.756-.012-1.025-.076-.157-.736-.841-3.098-3.21L13.782 12l3.001-3.01c2.362-2.369 3.022-3.053 3.098-3.21.145-.299.14-.756-.012-1.066a1.326 1.326 0 0 0-.624-.607c-.275-.124-.756-.119-1.025.012-.157.076-.841.736-3.21 3.098L12 10.218 8.99 7.217C6.706 4.94 5.935 4.195 5.793 4.127a1.45 1.45 0 0 0-.875-.075"
      fill-rule="evenodd" fill="#000"></path>
  </symbol>
  <symbol xmlns="http://www.w3.org/2000/svg" viewBox="0 0 50 50" id="linkdin-icon">
    <path
      d="M41,4H9C6.24,4,4,6.24,4,9v32c0,2.76,2.24,5,5,5h32c2.76,0,5-2.24,5-5V9C46,6.24,43.76,4,41,4z M17,20v19h-6V20H17z M11,14.47c0-1.4,1.2-2.47,3-2.47s2.93,1.07,3,2.47c0,1.4-1.12,2.53-3,2.53C12.2,17,11,15.87,11,14.47z M39,39h-6c0,0,0-9.26,0-10 c0-2-1-4-3.5-4.04h-0.08C27,24.96,26,27.02,26,29c0,0.91,0,10,0,10h-6V20h6v2.56c0,0,1.93-2.56,5.81-2.56 c3.97,0,7.19,2.73,7.19,8.26V39z">
    </path>
  </symbol>
  <symbol xmlns="http://www.w3.org/2000/svg" viewBox="0 0 50 50" id="github-icon">
    <path
      d="M17.791,46.836C18.502,46.53,19,45.823,19,45v-5.4c0-0.197,0.016-0.402,0.041-0.61C19.027,38.994,19.014,38.997,19,39 c0,0-3,0-3.6,0c-1.5,0-2.8-0.6-3.4-1.8c-0.7-1.3-1-3.5-2.8-4.7C8.9,32.3,9.1,32,9.7,32c0.6,0.1,1.9,0.9,2.7,2c0.9,1.1,1.8,2,3.4,2 c2.487,0,3.82-0.125,4.622-0.555C21.356,34.056,22.649,33,24,33v-0.025c-5.668-0.182-9.289-2.066-10.975-4.975 c-3.665,0.042-6.856,0.405-8.677,0.707c-0.058-0.327-0.108-0.656-0.151-0.987c1.797-0.296,4.843-0.647,8.345-0.714 c-0.112-0.276-0.209-0.559-0.291-0.849c-3.511-0.178-6.541-0.039-8.187,0.097c-0.02-0.332-0.047-0.663-0.051-0.999 c1.649-0.135,4.597-0.27,8.018-0.111c-0.079-0.5-0.13-1.011-0.13-1.543c0-1.7,0.6-3.5,1.7-5c-0.5-1.7-1.2-5.3,0.2-6.6 c2.7,0,4.6,1.3,5.5,2.1C21,13.4,22.9,13,25,13s4,0.4,5.6,1.1c0.9-0.8,2.8-2.1,5.5-2.1c1.5,1.4,0.7,5,0.2,6.6c1.1,1.5,1.7,3.2,1.6,5 c0,0.484-0.045,0.951-0.11,1.409c3.499-0.172,6.527-0.034,8.204,0.102c-0.002,0.337-0.033,0.666-0.051,0.999 c-1.671-0.138-4.775-0.28-8.359-0.089c-0.089,0.336-0.197,0.663-0.325,0.98c3.546,0.046,6.665,0.389,8.548,0.689 c-0.043,0.332-0.093,0.661-0.151,0.987c-1.912-0.306-5.171-0.664-8.879-0.682C35.112,30.873,31.557,32.75,26,32.969V33 c2.6,0,5,3.9,5,6.6V45c0,0.823,0.498,1.53,1.209,1.836C41.37,43.804,48,35.164,48,25C48,12.318,37.683,2,25,2S2,12.318,2,25 C2,35.164,8.63,43.804,17.791,46.836z">
    </path>
  </symbol>
  <symbol xmlns="http://www.w3.org/2000/svg" viewBox="0 0 50 50" id="twitter-icon">
    <path
      d="M 50.0625 10.4375 C 48.214844 11.257813 46.234375 11.808594 44.152344 12.058594 C 46.277344 10.785156 47.910156 8.769531 48.675781 6.371094 C 46.691406 7.546875 44.484375 8.402344 42.144531 8.863281 C 40.269531 6.863281 37.597656 5.617188 34.640625 5.617188 C 28.960938 5.617188 24.355469 10.21875 24.355469 15.898438 C 24.355469 16.703125 24.449219 17.488281 24.625 18.242188 C 16.078125 17.8125 8.503906 13.71875 3.429688 7.496094 C 2.542969 9.019531 2.039063 10.785156 2.039063 12.667969 C 2.039063 16.234375 3.851563 19.382813 6.613281 21.230469 C 4.925781 21.175781 3.339844 20.710938 1.953125 19.941406 C 1.953125 19.984375 1.953125 20.027344 1.953125 20.070313 C 1.953125 25.054688 5.5 29.207031 10.199219 30.15625 C 9.339844 30.390625 8.429688 30.515625 7.492188 30.515625 C 6.828125 30.515625 6.183594 30.453125 5.554688 30.328125 C 6.867188 34.410156 10.664063 37.390625 15.160156 37.472656 C 11.644531 40.230469 7.210938 41.871094 2.390625 41.871094 C 1.558594 41.871094 0.742188 41.824219 -0.0585938 41.726563 C 4.488281 44.648438 9.894531 46.347656 15.703125 46.347656 C 34.617188 46.347656 44.960938 30.679688 44.960938 17.09375 C 44.960938 16.648438 44.949219 16.199219 44.933594 15.761719 C 46.941406 14.3125 48.683594 12.5 50.0625 10.4375 Z">
    </path>
  </symbol>
</svg>